<svg class="svg-icon" style="fill:currentColor" viewBox="0 0 1024 1024" ><path d="M926.293 620.373 819.627 512a42.667 42.667 0 0 0-60.587 0L640 633.173 520.96 512a42.667 42.667 0 0 0-60.587 0l-97.706 99.84L264.96 512a42.667 42.667 0 0 0-60.587 0L97.707 618.667a42.667 42.667 0 0 0-8.96 14.08 42.667 42.667 0 0 0-3.414 16.213v161.707a128 128 0 0 0 128 128h597.334a128 128 0 0 0 128-128v-160a42.667 42.667 0 0 0-3.414-16.214 42.667 42.667 0 0 0-8.96-14.08zm-72.96 190.294a42.667 42.667 0 0 1-42.666 42.666H213.333a42.667 42.667 0 0 1-42.666-42.666V668.16l64-64 97.706 98.133a42.667 42.667 0 0 0 60.587 0l97.707-98.133 119.04 121.173a42.667 42.667 0 0 0 60.586 0l119.04-119.466 64 64zM810.667 85.333H213.333a128 128 0 0 0-128 128V437.76a49.92 49.92 0 0 0 0 11.52v4.267a42.667 42.667 0 0 0 70.827 13.226l78.507-75.946 97.706 98.133a42.667 42.667 0 0 0 60.587 0l97.707-98.133L609.707 512a42.667 42.667 0 0 0 60.586 0l119.04-119.467 75.52 75.947a42.667 42.667 0 0 0 70.827-13.227 11.947 11.947 0 0 0 0-3.84 37.547 37.547 0 0 0 2.56-11.946V213.333a128 128 0 0 0-127.573-128zm42.666 249.174-33.706-35.84a42.667 42.667 0 0 0-60.587 0L640 419.84 520.96 298.667a42.667 42.667 0 0 0-60.587 0l-97.706 99.84-97.707-99.84a42.667 42.667 0 0 0-60.587 0l-33.706 35.84V213.333a42.667 42.667 0 0 1 42.666-42.666h597.334a42.667 42.667 0 0 1 42.666 42.666z"/></svg>